<mxfile host="app.diagrams.net" modified="2020-08-17T05:51:39.505Z" agent="5.0 (Windows NT 10.0; Win64; x64) AppleWebKit/537.36 (KHTML, like Gecko) Chrome/84.0.4147.125 Safari/537.36" etag="YUcTspz7NZuCLNabdCC5" version="13.6.2" type="github">
  <diagram name="Page-1" id="822b0af5-4adb-64df-f703-e8dfc1f81529">
    <mxGraphModel dx="1697" dy="951" grid="1" gridSize="10" guides="1" tooltips="1" connect="1" arrows="1" fold="1" page="1" pageScale="1" pageWidth="1100" pageHeight="850" background="#ffffff" math="0" shadow="0">
      <root>
        <mxCell id="0" />
        <mxCell id="1" parent="0" />
        <mxCell id="rUVOEs3PUwSI3t5a5U2U-28" style="edgeStyle=orthogonalEdgeStyle;orthogonalLoop=1;jettySize=auto;html=1;rounded=1;startArrow=oval;startFill=1;endArrow=oval;endFill=1;jumpStyle=none;shadow=1;" edge="1" parent="1">
          <mxGeometry relative="1" as="geometry">
            <mxPoint x="620" y="240" as="sourcePoint" />
            <mxPoint x="578" y="460" as="targetPoint" />
            <Array as="points">
              <mxPoint x="620" y="240" />
              <mxPoint x="620" y="350" />
              <mxPoint x="578" y="350" />
            </Array>
          </mxGeometry>
        </mxCell>
        <mxCell id="rUVOEs3PUwSI3t5a5U2U-17" style="edgeStyle=orthogonalEdgeStyle;orthogonalLoop=1;jettySize=auto;html=1;rounded=1;startArrow=oval;startFill=1;endArrow=oval;endFill=1;jumpStyle=none;shadow=1;entryX=0.462;entryY=0.02;entryDx=0;entryDy=0;entryPerimeter=0;" edge="1" parent="1" target="rUVOEs3PUwSI3t5a5U2U-16">
          <mxGeometry relative="1" as="geometry">
            <mxPoint x="520" y="240" as="sourcePoint" />
            <mxPoint x="320" y="680" as="targetPoint" />
            <Array as="points">
              <mxPoint x="520" y="350" />
              <mxPoint x="570" y="350" />
              <mxPoint x="570" y="461" />
            </Array>
          </mxGeometry>
        </mxCell>
        <mxCell id="rUVOEs3PUwSI3t5a5U2U-36" style="edgeStyle=orthogonalEdgeStyle;rounded=1;jumpStyle=none;orthogonalLoop=1;jettySize=auto;html=1;exitX=0.5;exitY=1;exitDx=0;exitDy=0;exitPerimeter=0;entryX=0.5;entryY=0;entryDx=0;entryDy=0;entryPerimeter=0;shadow=1;startArrow=oval;startFill=1;endArrow=oval;endFill=1;strokeColor=#FF1808;dashed=1;" edge="1" parent="1" source="rUVOEs3PUwSI3t5a5U2U-8" target="rUVOEs3PUwSI3t5a5U2U-9">
          <mxGeometry relative="1" as="geometry" />
        </mxCell>
        <mxCell id="rUVOEs3PUwSI3t5a5U2U-8" value="" style="points=[[0.015,0.015,0],[0.985,0.015,0],[0.985,0.985,0],[0.015,0.985,0],[0.25,0,0],[0.5,0,0],[0.75,0,0],[1,0.25,0],[1,0.5,0],[1,0.75,0],[0.75,1,0],[0.5,1,0],[0.25,1,0],[0,0.75,0],[0,0.5,0],[0,0.25,0]];verticalLabelPosition=bottom;html=1;verticalAlign=top;aspect=fixed;align=center;pointerEvents=1;shape=mxgraph.cisco19.rect;prIcon=l3_switch;fillColor=#FAFAFA;strokeColor=#005073;" vertex="1" parent="1">
          <mxGeometry x="240" y="320" width="50" height="50" as="geometry" />
        </mxCell>
        <mxCell id="rUVOEs3PUwSI3t5a5U2U-9" value="" style="points=[[0.015,0.015,0],[0.985,0.015,0],[0.985,0.985,0],[0.015,0.985,0],[0.25,0,0],[0.5,0,0],[0.75,0,0],[1,0.25,0],[1,0.5,0],[1,0.75,0],[0.75,1,0],[0.5,1,0],[0.25,1,0],[0,0.75,0],[0,0.5,0],[0,0.25,0]];verticalLabelPosition=bottom;html=1;verticalAlign=top;aspect=fixed;align=center;pointerEvents=1;shape=mxgraph.cisco19.rect;prIcon=l3_switch;fillColor=#FAFAFA;strokeColor=#005073;" vertex="1" parent="1">
          <mxGeometry x="240" y="400" width="50" height="50" as="geometry" />
        </mxCell>
        <mxCell id="rUVOEs3PUwSI3t5a5U2U-34" style="edgeStyle=orthogonalEdgeStyle;rounded=1;jumpStyle=none;orthogonalLoop=1;jettySize=auto;html=1;exitX=0.5;exitY=1;exitDx=0;exitDy=0;exitPerimeter=0;entryX=0.5;entryY=0;entryDx=0;entryDy=0;entryPerimeter=0;shadow=1;startArrow=oval;startFill=1;endArrow=oval;endFill=1;strokeColor=#FF1808;dashed=1;" edge="1" parent="1" source="rUVOEs3PUwSI3t5a5U2U-15" target="rUVOEs3PUwSI3t5a5U2U-32">
          <mxGeometry relative="1" as="geometry" />
        </mxCell>
        <mxCell id="rUVOEs3PUwSI3t5a5U2U-15" value="" style="points=[[0.015,0.015,0],[0.985,0.015,0],[0.985,0.985,0],[0.015,0.985,0],[0.25,0,0],[0.5,0,0],[0.75,0,0],[1,0.25,0],[1,0.5,0],[1,0.75,0],[0.75,1,0],[0.5,1,0],[0.25,1,0],[0,0.75,0],[0,0.5,0],[0,0.25,0]];verticalLabelPosition=bottom;html=1;verticalAlign=top;aspect=fixed;align=center;pointerEvents=1;shape=mxgraph.cisco19.rect;prIcon=secure_catalyst_switch_color;fillColor=#FAFAFA;strokeColor=#005073;" vertex="1" parent="1">
          <mxGeometry x="80" y="320" width="50" height="50" as="geometry" />
        </mxCell>
        <mxCell id="rUVOEs3PUwSI3t5a5U2U-29" style="edgeStyle=orthogonalEdgeStyle;orthogonalLoop=1;jettySize=auto;html=1;rounded=1;startArrow=oval;startFill=1;endArrow=oval;endFill=1;jumpStyle=none;shadow=1;exitX=0.845;exitY=0.961;exitDx=0;exitDy=0;exitPerimeter=0;" edge="1" parent="1" source="rUVOEs3PUwSI3t5a5U2U-25">
          <mxGeometry relative="1" as="geometry">
            <mxPoint x="630" y="250" as="sourcePoint" />
            <mxPoint x="588" y="460" as="targetPoint" />
            <Array as="points">
              <mxPoint x="965" y="390" />
              <mxPoint x="588" y="390" />
            </Array>
          </mxGeometry>
        </mxCell>
        <mxCell id="rUVOEs3PUwSI3t5a5U2U-30" style="edgeStyle=orthogonalEdgeStyle;orthogonalLoop=1;jettySize=auto;html=1;rounded=1;startArrow=oval;startFill=1;endArrow=oval;endFill=1;jumpStyle=none;shadow=1;exitX=0.906;exitY=1.001;exitDx=0;exitDy=0;exitPerimeter=0;" edge="1" parent="1" source="rUVOEs3PUwSI3t5a5U2U-21">
          <mxGeometry relative="1" as="geometry">
            <mxPoint x="975" y="250" as="sourcePoint" />
            <mxPoint x="598" y="460" as="targetPoint" />
            <Array as="points">
              <mxPoint x="975" y="270" />
              <mxPoint x="1010" y="270" />
              <mxPoint x="1010" y="400" />
              <mxPoint x="598" y="400" />
            </Array>
          </mxGeometry>
        </mxCell>
        <mxCell id="rUVOEs3PUwSI3t5a5U2U-31" style="edgeStyle=orthogonalEdgeStyle;orthogonalLoop=1;jettySize=auto;html=1;rounded=1;startArrow=oval;startFill=1;endArrow=oval;endFill=1;jumpStyle=none;shadow=1;" edge="1" parent="1">
          <mxGeometry relative="1" as="geometry">
            <mxPoint x="971" y="161" as="sourcePoint" />
            <mxPoint x="611" y="459" as="targetPoint" />
            <Array as="points">
              <mxPoint x="971" y="190" />
              <mxPoint x="1020" y="190" />
              <mxPoint x="1020" y="410" />
              <mxPoint x="611" y="410" />
            </Array>
          </mxGeometry>
        </mxCell>
        <mxCell id="rUVOEs3PUwSI3t5a5U2U-32" value="" style="points=[[0.015,0.015,0],[0.985,0.015,0],[0.985,0.985,0],[0.015,0.985,0],[0.25,0,0],[0.5,0,0],[0.75,0,0],[1,0.25,0],[1,0.5,0],[1,0.75,0],[0.75,1,0],[0.5,1,0],[0.25,1,0],[0,0.75,0],[0,0.5,0],[0,0.25,0]];verticalLabelPosition=bottom;html=1;verticalAlign=top;aspect=fixed;align=center;pointerEvents=1;shape=mxgraph.cisco19.rect;prIcon=secure_catalyst_switch_color;fillColor=#FAFAFA;strokeColor=#005073;" vertex="1" parent="1">
          <mxGeometry x="80" y="400" width="50" height="50" as="geometry" />
        </mxCell>
        <mxCell id="rUVOEs3PUwSI3t5a5U2U-41" value="" style="rounded=1;whiteSpace=wrap;html=1;fillColor=none;dashed=1;" vertex="1" parent="1">
          <mxGeometry x="205" y="300" width="120" height="180" as="geometry" />
        </mxCell>
        <mxCell id="rUVOEs3PUwSI3t5a5U2U-42" style="edgeStyle=orthogonalEdgeStyle;orthogonalLoop=1;jettySize=auto;html=1;rounded=1;startArrow=oval;startFill=1;endArrow=oval;endFill=1;jumpStyle=none;shadow=1;entryX=1.001;entryY=0.125;entryDx=0;entryDy=0;strokeColor=#2020A1;entryPerimeter=0;" edge="1" parent="1" target="rUVOEs3PUwSI3t5a5U2U-41">
          <mxGeometry relative="1" as="geometry">
            <mxPoint x="385" y="240" as="sourcePoint" />
            <mxPoint x="448" y="520" as="targetPoint" />
            <Array as="points">
              <mxPoint x="385" y="322" />
            </Array>
          </mxGeometry>
        </mxCell>
        <mxCell id="rUVOEs3PUwSI3t5a5U2U-43" style="edgeStyle=orthogonalEdgeStyle;orthogonalLoop=1;jettySize=auto;html=1;rounded=1;startArrow=oval;startFill=1;endArrow=oval;endFill=1;jumpStyle=none;shadow=1;entryX=1.008;entryY=0.173;entryDx=0;entryDy=0;strokeColor=#2020A1;entryPerimeter=0;" edge="1" parent="1" target="rUVOEs3PUwSI3t5a5U2U-41">
          <mxGeometry relative="1" as="geometry">
            <mxPoint x="395" y="240" as="sourcePoint" />
            <mxPoint x="335.1200000000001" y="332.5000000000001" as="targetPoint" />
            <Array as="points">
              <mxPoint x="395" y="331" />
            </Array>
          </mxGeometry>
        </mxCell>
        <mxCell id="rUVOEs3PUwSI3t5a5U2U-44" style="edgeStyle=orthogonalEdgeStyle;orthogonalLoop=1;jettySize=auto;html=1;rounded=1;startArrow=oval;startFill=1;endArrow=oval;endFill=1;jumpStyle=none;shadow=1;entryX=1.008;entryY=0.224;entryDx=0;entryDy=0;strokeColor=#2020A1;entryPerimeter=0;" edge="1" parent="1" target="rUVOEs3PUwSI3t5a5U2U-41">
          <mxGeometry relative="1" as="geometry">
            <mxPoint x="405" y="240" as="sourcePoint" />
            <mxPoint x="335.96000000000004" y="341.1400000000001" as="targetPoint" />
            <Array as="points">
              <mxPoint x="405" y="340" />
            </Array>
          </mxGeometry>
        </mxCell>
        <mxCell id="rUVOEs3PUwSI3t5a5U2U-45" style="edgeStyle=orthogonalEdgeStyle;orthogonalLoop=1;jettySize=auto;html=1;rounded=1;startArrow=oval;startFill=1;endArrow=oval;endFill=1;jumpStyle=none;shadow=1;strokeColor=#2020A1;entryX=1.014;entryY=0.273;entryDx=0;entryDy=0;entryPerimeter=0;" edge="1" parent="1" target="rUVOEs3PUwSI3t5a5U2U-41">
          <mxGeometry relative="1" as="geometry">
            <mxPoint x="415" y="240" as="sourcePoint" />
            <mxPoint x="340" y="349" as="targetPoint" />
            <Array as="points">
              <mxPoint x="415" y="349" />
            </Array>
          </mxGeometry>
        </mxCell>
        <mxCell id="rUVOEs3PUwSI3t5a5U2U-46" style="edgeStyle=orthogonalEdgeStyle;orthogonalLoop=1;jettySize=auto;html=1;rounded=1;startArrow=oval;startFill=1;endArrow=oval;endFill=1;jumpStyle=none;shadow=1;strokeColor=#2020A1;entryX=1.008;entryY=0.66;entryDx=0;entryDy=0;entryPerimeter=0;exitX=0.781;exitY=1.035;exitDx=0;exitDy=0;exitPerimeter=0;" edge="1" parent="1" source="rUVOEs3PUwSI3t5a5U2U-23" target="rUVOEs3PUwSI3t5a5U2U-41">
          <mxGeometry relative="1" as="geometry">
            <mxPoint x="748.9200000000001" y="239" as="sourcePoint" />
            <mxPoint x="350" y="419" as="targetPoint" />
            <Array as="points">
              <mxPoint x="730" y="500" />
              <mxPoint x="420" y="500" />
              <mxPoint x="420" y="419" />
            </Array>
          </mxGeometry>
        </mxCell>
        <mxCell id="rUVOEs3PUwSI3t5a5U2U-47" style="edgeStyle=orthogonalEdgeStyle;orthogonalLoop=1;jettySize=auto;html=1;rounded=1;startArrow=oval;startFill=1;endArrow=oval;endFill=1;jumpStyle=none;shadow=1;strokeColor=#2020A1;entryX=1.008;entryY=0.719;entryDx=0;entryDy=0;entryPerimeter=0;" edge="1" parent="1" target="rUVOEs3PUwSI3t5a5U2U-41">
          <mxGeometry relative="1" as="geometry">
            <mxPoint x="740" y="240" as="sourcePoint" />
            <mxPoint x="340" y="429" as="targetPoint" />
            <Array as="points">
              <mxPoint x="740" y="240" />
              <mxPoint x="740" y="510" />
              <mxPoint x="410" y="510" />
              <mxPoint x="410" y="429" />
            </Array>
          </mxGeometry>
        </mxCell>
        <mxCell id="rUVOEs3PUwSI3t5a5U2U-48" style="edgeStyle=orthogonalEdgeStyle;orthogonalLoop=1;jettySize=auto;html=1;rounded=1;startArrow=oval;startFill=1;endArrow=oval;endFill=1;jumpStyle=none;shadow=1;strokeColor=#2020A1;entryX=1.003;entryY=0.782;entryDx=0;entryDy=0;entryPerimeter=0;" edge="1" parent="1" target="rUVOEs3PUwSI3t5a5U2U-41">
          <mxGeometry relative="1" as="geometry">
            <mxPoint x="750" y="240" as="sourcePoint" />
            <mxPoint x="335.9599999999998" y="439.4200000000001" as="targetPoint" />
            <Array as="points">
              <mxPoint x="750" y="520" />
              <mxPoint x="400" y="520" />
              <mxPoint x="400" y="441" />
            </Array>
          </mxGeometry>
        </mxCell>
        <mxCell id="rUVOEs3PUwSI3t5a5U2U-49" style="edgeStyle=orthogonalEdgeStyle;orthogonalLoop=1;jettySize=auto;html=1;rounded=1;startArrow=oval;startFill=1;endArrow=oval;endFill=1;jumpStyle=none;shadow=1;strokeColor=#2020A1;entryX=1.003;entryY=0.835;entryDx=0;entryDy=0;entryPerimeter=0;" edge="1" parent="1" target="rUVOEs3PUwSI3t5a5U2U-41">
          <mxGeometry relative="1" as="geometry">
            <mxPoint x="760" y="240" as="sourcePoint" />
            <mxPoint x="340" y="450" as="targetPoint" />
            <Array as="points">
              <mxPoint x="760" y="530" />
              <mxPoint x="390" y="530" />
              <mxPoint x="390" y="450" />
            </Array>
          </mxGeometry>
        </mxCell>
        <mxCell id="rUVOEs3PUwSI3t5a5U2U-50" style="edgeStyle=orthogonalEdgeStyle;orthogonalLoop=1;jettySize=auto;html=1;rounded=1;startArrow=oval;startFill=1;endArrow=oval;endFill=1;jumpStyle=none;shadow=1;strokeColor=#EB9534;sketch=0;exitX=0.5;exitY=1;exitDx=0;exitDy=0;exitPerimeter=0;" edge="1" parent="1" source="rUVOEs3PUwSI3t5a5U2U-6" target="rUVOEs3PUwSI3t5a5U2U-22">
          <mxGeometry relative="1" as="geometry">
            <mxPoint x="520" y="170" as="sourcePoint" />
            <mxPoint x="340" y="170" as="targetPoint" />
            <Array as="points" />
          </mxGeometry>
        </mxCell>
        <mxCell id="rUVOEs3PUwSI3t5a5U2U-53" style="edgeStyle=orthogonalEdgeStyle;orthogonalLoop=1;jettySize=auto;html=1;rounded=1;startArrow=oval;startFill=1;endArrow=oval;endFill=1;jumpStyle=none;shadow=1;strokeColor=#EB9534;sketch=0;exitX=0.5;exitY=1;exitDx=0;exitDy=0;exitPerimeter=0;" edge="1" parent="1">
          <mxGeometry relative="1" as="geometry">
            <mxPoint x="680.8" y="160" as="sourcePoint" />
            <mxPoint x="680.8" y="210" as="targetPoint" />
            <Array as="points" />
          </mxGeometry>
        </mxCell>
        <mxCell id="rUVOEs3PUwSI3t5a5U2U-54" style="edgeStyle=orthogonalEdgeStyle;orthogonalLoop=1;jettySize=auto;html=1;rounded=1;startArrow=oval;startFill=1;endArrow=oval;endFill=1;jumpStyle=none;shadow=1;strokeColor=#EB9534;sketch=0;exitX=0.25;exitY=1;exitDx=0;exitDy=0;exitPerimeter=0;entryX=0.594;entryY=-0.018;entryDx=0;entryDy=0;entryPerimeter=0;" edge="1" parent="1" source="rUVOEs3PUwSI3t5a5U2U-14" target="rUVOEs3PUwSI3t5a5U2U-22">
          <mxGeometry relative="1" as="geometry">
            <mxPoint x="480" y="160" as="sourcePoint" />
            <mxPoint x="480" y="210" as="targetPoint" />
            <Array as="points" />
          </mxGeometry>
        </mxCell>
        <mxCell id="rUVOEs3PUwSI3t5a5U2U-55" style="edgeStyle=orthogonalEdgeStyle;orthogonalLoop=1;jettySize=auto;html=1;rounded=1;startArrow=oval;startFill=1;endArrow=oval;endFill=1;jumpStyle=none;shadow=1;strokeColor=#EB9534;sketch=0;exitX=0.75;exitY=1;exitDx=0;exitDy=0;exitPerimeter=0;" edge="1" parent="1" source="rUVOEs3PUwSI3t5a5U2U-6">
          <mxGeometry relative="1" as="geometry">
            <mxPoint x="670" y="160" as="sourcePoint" />
            <mxPoint x="670" y="210" as="targetPoint" />
            <Array as="points">
              <mxPoint x="468" y="180" />
              <mxPoint x="670" y="180" />
            </Array>
          </mxGeometry>
        </mxCell>
        <mxCell id="rUVOEs3PUwSI3t5a5U2U-56" value="" style="shape=mxgraph.rack.dell.dell_poweredge_2u;html=1;labelPosition=right;align=left;spacingLeft=15;dashed=0;shadow=0;fillColor=#ffffff;" vertex="1" parent="1">
          <mxGeometry x="25" y="560" width="160" height="29" as="geometry" />
        </mxCell>
        <mxCell id="rUVOEs3PUwSI3t5a5U2U-57" style="edgeStyle=orthogonalEdgeStyle;orthogonalLoop=1;jettySize=auto;html=1;rounded=1;startArrow=oval;startFill=1;endArrow=oval;endFill=1;jumpStyle=none;shadow=1;strokeColor=#EB9534;sketch=0;exitX=0.5;exitY=0;exitDx=0;exitDy=0;exitPerimeter=0;entryX=0.113;entryY=-0.006;entryDx=0;entryDy=0;entryPerimeter=0;" edge="1" parent="1" source="rUVOEs3PUwSI3t5a5U2U-14" target="rUVOEs3PUwSI3t5a5U2U-20">
          <mxGeometry relative="1" as="geometry">
            <mxPoint x="904.5" y="40" as="sourcePoint" />
            <mxPoint x="706.04" y="89.47799999999995" as="targetPoint" />
            <Array as="points" />
          </mxGeometry>
        </mxCell>
        <mxCell id="rUVOEs3PUwSI3t5a5U2U-58" style="edgeStyle=orthogonalEdgeStyle;orthogonalLoop=1;jettySize=auto;html=1;rounded=1;startArrow=oval;startFill=1;endArrow=oval;endFill=1;jumpStyle=none;shadow=1;strokeColor=#EB9534;sketch=0;exitX=0.5;exitY=0;exitDx=0;exitDy=0;exitPerimeter=0;" edge="1" parent="1" source="rUVOEs3PUwSI3t5a5U2U-6">
          <mxGeometry relative="1" as="geometry">
            <mxPoint x="691" y="120" as="sourcePoint" />
            <mxPoint x="859" y="100" as="targetPoint" />
            <Array as="points">
              <mxPoint x="455" y="70" />
              <mxPoint x="859" y="70" />
            </Array>
          </mxGeometry>
        </mxCell>
        <mxCell id="rUVOEs3PUwSI3t5a5U2U-59" style="edgeStyle=orthogonalEdgeStyle;orthogonalLoop=1;jettySize=auto;html=1;rounded=1;startArrow=oval;startFill=1;endArrow=oval;endFill=1;jumpStyle=none;shadow=1;strokeColor=#EB9534;sketch=0;exitX=0.75;exitY=0;exitDx=0;exitDy=0;exitPerimeter=0;" edge="1" parent="1" source="rUVOEs3PUwSI3t5a5U2U-14">
          <mxGeometry relative="1" as="geometry">
            <mxPoint x="691" y="120" as="sourcePoint" />
            <mxPoint x="955" y="101" as="targetPoint" />
            <Array as="points">
              <mxPoint x="694" y="60" />
              <mxPoint x="955" y="60" />
            </Array>
          </mxGeometry>
        </mxCell>
        <mxCell id="rUVOEs3PUwSI3t5a5U2U-60" style="edgeStyle=orthogonalEdgeStyle;orthogonalLoop=1;jettySize=auto;html=1;rounded=1;startArrow=oval;startFill=1;endArrow=oval;endFill=1;jumpStyle=none;shadow=1;strokeColor=#EB9534;sketch=0;exitX=0.75;exitY=0;exitDx=0;exitDy=0;exitPerimeter=0;" edge="1" parent="1" source="rUVOEs3PUwSI3t5a5U2U-6">
          <mxGeometry relative="1" as="geometry">
            <mxPoint x="703.5" y="120" as="sourcePoint" />
            <mxPoint x="965" y="100" as="targetPoint" />
            <Array as="points">
              <mxPoint x="468" y="50" />
              <mxPoint x="965" y="50" />
            </Array>
          </mxGeometry>
        </mxCell>
        <mxCell id="rUVOEs3PUwSI3t5a5U2U-61" style="edgeStyle=orthogonalEdgeStyle;orthogonalLoop=1;jettySize=auto;html=1;rounded=1;startArrow=oval;startFill=1;endArrow=oval;endFill=1;jumpStyle=none;shadow=1;strokeColor=#2020A1;exitX=0.749;exitY=1.006;exitDx=0;exitDy=0;exitPerimeter=0;" edge="1" parent="1" source="rUVOEs3PUwSI3t5a5U2U-20" target="rUVOEs3PUwSI3t5a5U2U-41">
          <mxGeometry relative="1" as="geometry">
            <mxPoint x="960" y="160" as="sourcePoint" />
            <mxPoint x="277" y="482" as="targetPoint" />
            <Array as="points">
              <mxPoint x="950" y="180" />
              <mxPoint x="780" y="180" />
              <mxPoint x="780" y="540" />
              <mxPoint x="277" y="540" />
            </Array>
          </mxGeometry>
        </mxCell>
        <mxCell id="rUVOEs3PUwSI3t5a5U2U-62" style="edgeStyle=orthogonalEdgeStyle;orthogonalLoop=1;jettySize=auto;html=1;rounded=1;startArrow=oval;startFill=1;endArrow=oval;endFill=1;jumpStyle=none;shadow=1;strokeColor=#2020A1;entryX=0.5;entryY=1;entryDx=0;entryDy=0;exitX=0.811;exitY=1.002;exitDx=0;exitDy=0;exitPerimeter=0;" edge="1" parent="1" source="rUVOEs3PUwSI3t5a5U2U-20" target="rUVOEs3PUwSI3t5a5U2U-41">
          <mxGeometry relative="1" as="geometry">
            <mxPoint x="970" y="160" as="sourcePoint" />
            <mxPoint x="287.1200000000001" y="491.79999999999995" as="targetPoint" />
            <Array as="points">
              <mxPoint x="960" y="190" />
              <mxPoint x="790" y="190" />
              <mxPoint x="790" y="550" />
              <mxPoint x="265" y="550" />
            </Array>
          </mxGeometry>
        </mxCell>
        <mxCell id="rUVOEs3PUwSI3t5a5U2U-63" style="edgeStyle=orthogonalEdgeStyle;orthogonalLoop=1;jettySize=auto;html=1;rounded=1;startArrow=oval;startFill=1;endArrow=oval;endFill=1;jumpStyle=none;shadow=1;sketch=0;entryX=0.739;entryY=0.914;entryDx=0;entryDy=0;entryPerimeter=0;strokeColor=#EB104B;" edge="1" parent="1" target="rUVOEs3PUwSI3t5a5U2U-25">
          <mxGeometry relative="1" as="geometry">
            <mxPoint x="150" y="590" as="sourcePoint" />
            <mxPoint x="948" y="325" as="targetPoint" />
            <Array as="points">
              <mxPoint x="150" y="600" />
              <mxPoint x="948" y="600" />
              <mxPoint x="948" y="322" />
            </Array>
          </mxGeometry>
        </mxCell>
        <mxCell id="rUVOEs3PUwSI3t5a5U2U-64" style="edgeStyle=orthogonalEdgeStyle;orthogonalLoop=1;jettySize=auto;html=1;rounded=1;startArrow=oval;startFill=1;endArrow=oval;endFill=1;jumpStyle=none;shadow=1;strokeColor=#2020A1;entryX=0.399;entryY=1.002;entryDx=0;entryDy=0;entryPerimeter=0;" edge="1" parent="1" target="rUVOEs3PUwSI3t5a5U2U-41">
          <mxGeometry relative="1" as="geometry">
            <mxPoint x="952.92" y="247" as="sourcePoint" />
            <mxPoint x="250" y="481" as="targetPoint" />
            <Array as="points">
              <mxPoint x="953" y="267" />
              <mxPoint x="800" y="267" />
              <mxPoint x="800" y="560" />
              <mxPoint x="253" y="560" />
              <mxPoint x="253" y="480" />
            </Array>
          </mxGeometry>
        </mxCell>
        <mxCell id="rUVOEs3PUwSI3t5a5U2U-65" style="edgeStyle=orthogonalEdgeStyle;orthogonalLoop=1;jettySize=auto;html=1;rounded=1;startArrow=oval;startFill=1;endArrow=oval;endFill=1;jumpStyle=none;shadow=1;strokeColor=#2020A1;entryX=0.291;entryY=0.997;entryDx=0;entryDy=0;entryPerimeter=0;" edge="1" parent="1" source="rUVOEs3PUwSI3t5a5U2U-21" target="rUVOEs3PUwSI3t5a5U2U-41">
          <mxGeometry relative="1" as="geometry">
            <mxPoint x="962.9200000000001" y="257" as="sourcePoint" />
            <mxPoint x="240" y="500" as="targetPoint" />
            <Array as="points">
              <mxPoint x="963" y="277" />
              <mxPoint x="810" y="277" />
              <mxPoint x="810" y="570" />
              <mxPoint x="240" y="570" />
            </Array>
          </mxGeometry>
        </mxCell>
        <mxCell id="rUVOEs3PUwSI3t5a5U2U-66" value="" style="rounded=1;whiteSpace=wrap;html=1;fillColor=none;dashed=1;" vertex="1" parent="1">
          <mxGeometry x="45" y="300" width="120" height="180" as="geometry" />
        </mxCell>
        <mxCell id="rUVOEs3PUwSI3t5a5U2U-67" value="" style="rounded=1;whiteSpace=wrap;html=1;fillColor=none;dashed=1;" vertex="1" parent="1">
          <mxGeometry x="10" y="520" width="190" height="120" as="geometry" />
        </mxCell>
        <mxCell id="rUVOEs3PUwSI3t5a5U2U-68" style="edgeStyle=orthogonalEdgeStyle;orthogonalLoop=1;jettySize=auto;html=1;rounded=1;startArrow=oval;startFill=1;endArrow=oval;endFill=1;jumpStyle=none;shadow=1;exitX=0.943;exitY=1.024;exitDx=0;exitDy=0;exitPerimeter=0;" edge="1" parent="1" source="rUVOEs3PUwSI3t5a5U2U-20">
          <mxGeometry relative="1" as="geometry">
            <mxPoint x="981" y="171" as="sourcePoint" />
            <mxPoint x="621" y="460" as="targetPoint" />
            <Array as="points">
              <mxPoint x="981" y="180" />
              <mxPoint x="1030" y="180" />
              <mxPoint x="1030" y="420" />
              <mxPoint x="621" y="420" />
            </Array>
          </mxGeometry>
        </mxCell>
        <mxCell id="rUVOEs3PUwSI3t5a5U2U-16" value="" style="aspect=fixed;perimeter=ellipsePerimeter;html=1;align=center;fontSize=12;verticalAlign=top;fontColor=#364149;shadow=0;dashed=0;image;image=img/lib/cumulus/switch.svg;fillColor=#00188D;" vertex="1" parent="1">
          <mxGeometry x="520" y="460" width="110" height="22.92" as="geometry" />
        </mxCell>
        <mxCell id="rUVOEs3PUwSI3t5a5U2U-25" value="" style="shape=mxgraph.rack.dell.dell_poweredge_1u;html=1;labelPosition=right;align=left;spacingLeft=15;dashed=0;shadow=0;fillColor=#ffffff;" vertex="1" parent="1">
          <mxGeometry x="830" y="308" width="160" height="14" as="geometry" />
        </mxCell>
        <mxCell id="rUVOEs3PUwSI3t5a5U2U-21" value="" style="shape=mxgraph.rack.dell.dell_poweredge_2u;html=1;labelPosition=right;align=left;spacingLeft=15;dashed=0;shadow=0;fillColor=#ffffff;" vertex="1" parent="1">
          <mxGeometry x="830" y="218" width="160" height="29" as="geometry" />
        </mxCell>
        <mxCell id="rUVOEs3PUwSI3t5a5U2U-20" value="" style="shape=mxgraph.rack.dell.dell_poweredge_4u;html=1;labelPosition=right;align=left;spacingLeft=15;dashed=0;shadow=0;fillColor=#ffffff;" vertex="1" parent="1">
          <mxGeometry x="830" y="101" width="160" height="59" as="geometry" />
        </mxCell>
        <mxCell id="rUVOEs3PUwSI3t5a5U2U-23" value="" style="shape=mxgraph.rack.dell.dell_poweredge_2u;html=1;labelPosition=right;align=left;spacingLeft=15;dashed=0;shadow=0;fillColor=#ffffff;" vertex="1" parent="1">
          <mxGeometry x="605" y="210" width="160" height="29" as="geometry" />
        </mxCell>
        <mxCell id="rUVOEs3PUwSI3t5a5U2U-22" value="" style="shape=mxgraph.rack.dell.dell_poweredge_2u;html=1;labelPosition=right;align=left;spacingLeft=15;dashed=0;shadow=0;fillColor=#ffffff;" vertex="1" parent="1">
          <mxGeometry x="375" y="210" width="160" height="29" as="geometry" />
        </mxCell>
        <mxCell id="rUVOEs3PUwSI3t5a5U2U-6" value="" style="verticalLabelPosition=bottom;html=1;fillColor=#6ABD46;strokeColor=#ffffff;verticalAlign=top;align=center;points=[[0.085,0.085,0],[0.915,0.085,0],[0.915,0.915,0],[0.085,0.915,0],[0.25,0,0],[0.5,0,0],[0.75,0,0],[1,0.25,0],[1,0.5,0],[1,0.75,0],[0.75,1,0],[0.5,1,0],[0.25,1,0],[0,0.75,0],[0,0.5,0],[0,0.25,0]];pointerEvents=1;shape=mxgraph.cisco_safe.compositeIcon;bgIcon=mxgraph.cisco_safe.architecture.generic_appliance;resIcon=mxgraph.cisco_safe.architecture.fabric_switch;" vertex="1" parent="1">
          <mxGeometry x="430" y="110" width="50" height="50" as="geometry" />
        </mxCell>
        <mxCell id="rUVOEs3PUwSI3t5a5U2U-14" value="" style="verticalLabelPosition=bottom;html=1;fillColor=#6ABD46;strokeColor=#ffffff;verticalAlign=top;align=center;points=[[0.085,0.085,0],[0.915,0.085,0],[0.915,0.915,0],[0.085,0.915,0],[0.25,0,0],[0.5,0,0],[0.75,0,0],[1,0.25,0],[1,0.5,0],[1,0.75,0],[0.75,1,0],[0.5,1,0],[0.25,1,0],[0,0.75,0],[0,0.5,0],[0,0.25,0]];pointerEvents=1;shape=mxgraph.cisco_safe.compositeIcon;bgIcon=mxgraph.cisco_safe.architecture.generic_appliance;resIcon=mxgraph.cisco_safe.architecture.fabric_switch;" vertex="1" parent="1">
          <mxGeometry x="656" y="110" width="50" height="50" as="geometry" />
        </mxCell>
        <mxCell id="rUVOEs3PUwSI3t5a5U2U-79" value="LEGENDS&amp;nbsp;" style="shape=table;html=1;whiteSpace=wrap;startSize=30;container=1;collapsible=0;childLayout=tableLayout;fixedRows=1;rowLines=0;fontStyle=1;align=center;" vertex="1" parent="1">
          <mxGeometry x="820" y="690" width="260" height="150" as="geometry" />
        </mxCell>
        <mxCell id="rUVOEs3PUwSI3t5a5U2U-80" value="" style="shape=partialRectangle;html=1;whiteSpace=wrap;collapsible=0;dropTarget=0;pointerEvents=0;top=0;left=0;bottom=1;right=0;points=[[0,0.5],[1,0.5]];portConstraint=eastwest;" vertex="1" parent="rUVOEs3PUwSI3t5a5U2U-79">
          <mxGeometry y="30" width="260" height="30" as="geometry" />
        </mxCell>
        <mxCell id="rUVOEs3PUwSI3t5a5U2U-81" value="1" style="shape=partialRectangle;html=1;whiteSpace=wrap;connectable=0;top=0;left=0;bottom=0;right=0;overflow=hidden;" vertex="1" parent="rUVOEs3PUwSI3t5a5U2U-80">
          <mxGeometry width="30" height="30" as="geometry" />
        </mxCell>
        <mxCell id="rUVOEs3PUwSI3t5a5U2U-82" value="LAN connection 10Gbps" style="shape=partialRectangle;html=1;whiteSpace=wrap;connectable=0;top=0;left=0;bottom=0;right=0;align=left;spacingLeft=6;overflow=hidden;" vertex="1" parent="rUVOEs3PUwSI3t5a5U2U-80">
          <mxGeometry x="30" width="230" height="30" as="geometry" />
        </mxCell>
        <mxCell id="rUVOEs3PUwSI3t5a5U2U-83" value="" style="shape=partialRectangle;html=1;whiteSpace=wrap;collapsible=0;dropTarget=0;pointerEvents=0;top=0;left=0;bottom=0;right=0;points=[[0,0.5],[1,0.5]];portConstraint=eastwest;" vertex="1" parent="rUVOEs3PUwSI3t5a5U2U-79">
          <mxGeometry y="60" width="260" height="30" as="geometry" />
        </mxCell>
        <mxCell id="rUVOEs3PUwSI3t5a5U2U-84" value="2" style="shape=partialRectangle;html=1;whiteSpace=wrap;connectable=0;top=0;left=0;bottom=0;right=0;overflow=hidden;" vertex="1" parent="rUVOEs3PUwSI3t5a5U2U-83">
          <mxGeometry width="30" height="30" as="geometry" />
        </mxCell>
        <mxCell id="rUVOEs3PUwSI3t5a5U2U-85" value="LAN connection 1Gbps" style="shape=partialRectangle;html=1;whiteSpace=wrap;connectable=0;top=0;left=0;bottom=0;right=0;align=left;spacingLeft=6;overflow=hidden;" vertex="1" parent="rUVOEs3PUwSI3t5a5U2U-83">
          <mxGeometry x="30" width="230" height="30" as="geometry" />
        </mxCell>
        <mxCell id="rUVOEs3PUwSI3t5a5U2U-86" value="" style="shape=partialRectangle;html=1;whiteSpace=wrap;collapsible=0;dropTarget=0;pointerEvents=0;top=0;left=0;bottom=0;right=0;points=[[0,0.5],[1,0.5]];portConstraint=eastwest;" vertex="1" parent="rUVOEs3PUwSI3t5a5U2U-79">
          <mxGeometry y="90" width="260" height="30" as="geometry" />
        </mxCell>
        <mxCell id="rUVOEs3PUwSI3t5a5U2U-87" value="3" style="shape=partialRectangle;html=1;whiteSpace=wrap;connectable=0;top=0;left=0;bottom=0;right=0;overflow=hidden;" vertex="1" parent="rUVOEs3PUwSI3t5a5U2U-86">
          <mxGeometry width="30" height="30" as="geometry" />
        </mxCell>
        <mxCell id="rUVOEs3PUwSI3t5a5U2U-88" value="Fiber connection 16Gbps" style="shape=partialRectangle;html=1;whiteSpace=wrap;connectable=0;top=0;left=0;bottom=0;right=0;align=left;spacingLeft=6;overflow=hidden;" vertex="1" parent="rUVOEs3PUwSI3t5a5U2U-86">
          <mxGeometry x="30" width="230" height="30" as="geometry" />
        </mxCell>
        <mxCell id="rUVOEs3PUwSI3t5a5U2U-99" value="" style="shape=partialRectangle;html=1;whiteSpace=wrap;collapsible=0;dropTarget=0;pointerEvents=0;top=0;left=0;bottom=0;right=0;points=[[0,0.5],[1,0.5]];portConstraint=eastwest;" vertex="1" parent="rUVOEs3PUwSI3t5a5U2U-79">
          <mxGeometry y="120" width="260" height="30" as="geometry" />
        </mxCell>
        <mxCell id="rUVOEs3PUwSI3t5a5U2U-100" value="4" style="shape=partialRectangle;html=1;whiteSpace=wrap;connectable=0;top=0;left=0;bottom=0;right=0;overflow=hidden;" vertex="1" parent="rUVOEs3PUwSI3t5a5U2U-99">
          <mxGeometry width="30" height="30" as="geometry" />
        </mxCell>
        <mxCell id="rUVOEs3PUwSI3t5a5U2U-101" value="SAS connection 6Gbps" style="shape=partialRectangle;html=1;whiteSpace=wrap;connectable=0;top=0;left=0;bottom=0;right=0;align=left;spacingLeft=6;overflow=hidden;" vertex="1" parent="rUVOEs3PUwSI3t5a5U2U-99">
          <mxGeometry x="30" width="230" height="30" as="geometry" />
        </mxCell>
        <mxCell id="rUVOEs3PUwSI3t5a5U2U-90" value="x 8" style="text;html=1;strokeColor=none;fillColor=none;align=center;verticalAlign=middle;whiteSpace=wrap;rounded=0;dashed=1;" vertex="1" parent="1">
          <mxGeometry x="345" y="300" width="40" height="20" as="geometry" />
        </mxCell>
        <mxCell id="rUVOEs3PUwSI3t5a5U2U-91" value="x 8" style="text;html=1;strokeColor=none;fillColor=none;align=center;verticalAlign=middle;whiteSpace=wrap;rounded=0;dashed=1;" vertex="1" parent="1">
          <mxGeometry x="345" y="400" width="40" height="20" as="geometry" />
        </mxCell>
        <mxCell id="rUVOEs3PUwSI3t5a5U2U-92" value="Backup&amp;nbsp; Sever" style="text;html=1;fillColor=none;align=center;verticalAlign=middle;whiteSpace=wrap;rounded=0;dashed=1;strokeColor=#000000;" vertex="1" parent="1">
          <mxGeometry x="20" y="600" width="90" height="20" as="geometry" />
        </mxCell>
        <mxCell id="rUVOEs3PUwSI3t5a5U2U-93" value="Tape Loader" style="text;html=1;fillColor=none;align=center;verticalAlign=middle;whiteSpace=wrap;rounded=0;dashed=1;strokeColor=#000000;" vertex="1" parent="1">
          <mxGeometry x="990" y="308" width="100" height="20" as="geometry" />
        </mxCell>
        <mxCell id="rUVOEs3PUwSI3t5a5U2U-94" value="Host 1" style="text;html=1;fillColor=none;align=center;verticalAlign=middle;whiteSpace=wrap;rounded=0;dashed=1;strokeColor=#000000;" vertex="1" parent="1">
          <mxGeometry x="410" y="239" width="90" height="20" as="geometry" />
        </mxCell>
        <mxCell id="rUVOEs3PUwSI3t5a5U2U-95" value="Host 2" style="text;html=1;fillColor=none;align=center;verticalAlign=middle;whiteSpace=wrap;rounded=0;dashed=1;strokeColor=#000000;" vertex="1" parent="1">
          <mxGeometry x="630" y="239" width="90" height="20" as="geometry" />
        </mxCell>
        <mxCell id="rUVOEs3PUwSI3t5a5U2U-96" value="SAN Storage" style="text;html=1;fillColor=none;align=center;verticalAlign=middle;whiteSpace=wrap;rounded=0;dashed=1;strokeColor=#000000;" vertex="1" parent="1">
          <mxGeometry x="990" y="120.5" width="90" height="20" as="geometry" />
        </mxCell>
        <mxCell id="rUVOEs3PUwSI3t5a5U2U-97" value="Backup Appliance" style="text;html=1;fillColor=none;align=center;verticalAlign=middle;whiteSpace=wrap;rounded=0;dashed=1;strokeColor=#000000;" vertex="1" parent="1">
          <mxGeometry x="990" y="227" width="100" height="20" as="geometry" />
        </mxCell>
        <mxCell id="rUVOEs3PUwSI3t5a5U2U-103" style="edgeStyle=orthogonalEdgeStyle;orthogonalLoop=1;jettySize=auto;html=1;rounded=1;startArrow=oval;startFill=1;endArrow=oval;endFill=1;jumpStyle=none;shadow=1;strokeColor=#2020A1;entryX=1.014;entryY=0.273;entryDx=0;entryDy=0;entryPerimeter=0;" edge="1" parent="1">
          <mxGeometry relative="1" as="geometry">
            <mxPoint x="1073" y="736" as="sourcePoint" />
            <mxPoint x="1004.6800000000001" y="736.1400000000001" as="targetPoint" />
            <Array as="points">
              <mxPoint x="1023" y="736" />
              <mxPoint x="1023" y="736" />
            </Array>
          </mxGeometry>
        </mxCell>
        <mxCell id="rUVOEs3PUwSI3t5a5U2U-104" style="edgeStyle=orthogonalEdgeStyle;orthogonalLoop=1;jettySize=auto;html=1;rounded=1;startArrow=oval;startFill=1;endArrow=oval;endFill=1;jumpStyle=none;shadow=1;entryX=1.014;entryY=0.273;entryDx=0;entryDy=0;entryPerimeter=0;strokeColor=#02020A;" edge="1" parent="1">
          <mxGeometry relative="1" as="geometry">
            <mxPoint x="1073" y="767" as="sourcePoint" />
            <mxPoint x="1004.6800000000003" y="767.1400000000001" as="targetPoint" />
            <Array as="points">
              <mxPoint x="1023" y="767" />
              <mxPoint x="1023" y="767" />
            </Array>
          </mxGeometry>
        </mxCell>
        <mxCell id="rUVOEs3PUwSI3t5a5U2U-105" style="edgeStyle=orthogonalEdgeStyle;orthogonalLoop=1;jettySize=auto;html=1;rounded=1;startArrow=oval;startFill=1;endArrow=oval;endFill=1;jumpStyle=none;shadow=1;entryX=1.014;entryY=0.273;entryDx=0;entryDy=0;entryPerimeter=0;strokeColor=#DE8E33;" edge="1" parent="1">
          <mxGeometry relative="1" as="geometry">
            <mxPoint x="1073" y="796" as="sourcePoint" />
            <mxPoint x="1004.6800000000003" y="796.1400000000001" as="targetPoint" />
            <Array as="points">
              <mxPoint x="1023" y="796" />
              <mxPoint x="1023" y="796" />
            </Array>
          </mxGeometry>
        </mxCell>
        <mxCell id="rUVOEs3PUwSI3t5a5U2U-106" style="edgeStyle=orthogonalEdgeStyle;orthogonalLoop=1;jettySize=auto;html=1;rounded=1;startArrow=oval;startFill=1;endArrow=oval;endFill=1;jumpStyle=none;shadow=1;entryX=1.014;entryY=0.273;entryDx=0;entryDy=0;entryPerimeter=0;strokeColor=#A10A0F;" edge="1" parent="1">
          <mxGeometry relative="1" as="geometry">
            <mxPoint x="1073" y="826" as="sourcePoint" />
            <mxPoint x="1004.6800000000003" y="826.1400000000001" as="targetPoint" />
            <Array as="points">
              <mxPoint x="1023" y="826" />
              <mxPoint x="1023" y="826" />
            </Array>
          </mxGeometry>
        </mxCell>
        <mxCell id="rUVOEs3PUwSI3t5a5U2U-107" value="10G SW" style="text;html=1;fillColor=none;align=center;verticalAlign=middle;whiteSpace=wrap;rounded=0;dashed=1;strokeColor=#000000;" vertex="1" parent="1">
          <mxGeometry x="230" y="280" width="90" height="20" as="geometry" />
        </mxCell>
        <mxCell id="rUVOEs3PUwSI3t5a5U2U-108" value="Layer 3 SW" style="text;html=1;fillColor=none;align=center;verticalAlign=middle;whiteSpace=wrap;rounded=0;dashed=1;strokeColor=#000000;" vertex="1" parent="1">
          <mxGeometry x="60" y="280" width="90" height="20" as="geometry" />
        </mxCell>
        <mxCell id="rUVOEs3PUwSI3t5a5U2U-109" value="SAN SW" style="text;html=1;fillColor=none;align=center;verticalAlign=middle;whiteSpace=wrap;rounded=0;dashed=1;strokeColor=#000000;" vertex="1" parent="1">
          <mxGeometry x="310" y="125" width="90" height="20" as="geometry" />
        </mxCell>
      </root>
    </mxGraphModel>
  </diagram>
</mxfile>
